<svg width="16" height="16" viewBox="0 0 16 16" fill="none" xmlns="http://www.w3.org/2000/svg">
<g clip-path="url(#clip0_4445_11418)">
<path d="M1.8988 15.7C2.26283 15.8556 2.6653 15.8978 3.0537 15.8212C3.4421 15.7447 3.79841 15.5528 4.07613 15.2707L7.99947 11.3687L11.9228 15.2707C12.1057 15.4563 12.3237 15.6037 12.564 15.7046C12.8043 15.8054 13.0622 15.8575 13.3228 15.858C13.5907 15.8572 13.8557 15.8035 14.1028 15.7C14.4698 15.5515 14.7835 15.2957 15.0029 14.9662C15.2224 14.6366 15.3373 14.2486 15.3328 13.8527V3.33333C15.3317 2.4496 14.9802 1.60237 14.3553 0.97748C13.7304 0.352588 12.8832 0.00105857 11.9995 0L3.99946 0C3.11574 0.00105857 2.2685 0.352588 1.64361 0.97748C1.01872 1.60237 0.66719 2.4496 0.666132 3.33333V13.8527C0.66183 14.2489 0.777183 14.6372 0.997107 14.9667C1.21703 15.2963 1.53129 15.5519 1.8988 15.7Z" fill="#EDEDED"/>
</g>
<defs>
<clipPath id="clip0_4445_11418">
<rect width="16" height="16" fill="white"/>
</clipPath>
</defs>
</svg>
